<?xml version="1.0" standalone="no"?>
<!DOCTYPE svg PUBLIC "-//W3C//DTD SVG 20010904//EN"
 "http://www.w3.org/TR/2001/REC-SVG-20010904/DTD/svg10.dtd">
<svg version="1.0" xmlns="http://www.w3.org/2000/svg"
 width="512.000000pt" height="512.000000pt" viewBox="0 0 512.000000 512.000000"
 preserveAspectRatio="xMidYMid meet">

<g transform="translate(0.000000,512.000000) scale(0.100000,-0.100000)"
fill="#000000" stroke="none">
<path d="M671 5109 c-44 -17 -81 -51 -101 -89 -20 -38 -20 -63 -20 -1013 0
-1078 -3 -1026 66 -1158 47 -88 156 -194 236 -229 l58 -25 0 -1110 c0 -715 4
-1133 10 -1174 6 -35 20 -82 32 -104 33 -66 112 -141 181 -173 l62 -29 270 0
270 0 57 27 c74 34 152 112 186 186 l27 57 5 1157 5 1157 65 32 c140 70 266
243 290 399 14 91 13 1912 -1 1963 -13 47 -63 106 -106 123 -39 17 -91 18
-130 3 -30 -11 -88 -62 -106 -94 -9 -14 -13 -202 -17 -676 l-5 -656 -29 -37
c-41 -55 -82 -76 -144 -76 -29 0 -66 7 -81 14 -35 19 -89 79 -96 109 -3 12 -6
308 -8 657 -2 615 -3 636 -22 669 -11 19 -37 48 -58 65 -34 27 -46 31 -101 31
-79 0 -133 -32 -165 -97 -21 -44 -21 -53 -21 -674 0 -590 -2 -631 -19 -669
-72 -156 -294 -136 -340 30 -7 27 -11 237 -11 657 0 412 -4 626 -11 645 -31
83 -146 135 -228 102z"/>
<path d="M3493 5105 c-196 -36 -345 -117 -494 -271 -119 -123 -188 -245 -231
-407 -22 -82 -22 -83 -25 -1297 -3 -912 -1 -1221 8 -1242 24 -58 24 -58 386
-58 l333 0 0 -727 c0 -753 3 -821 42 -896 33 -66 112 -141 181 -173 l62 -29
270 0 270 0 57 27 c74 34 152 112 186 186 l27 57 3 2353 c2 2346 2 2353 -18
2392 -11 22 -39 52 -62 67 l-42 28 -440 2 c-328 1 -459 -2 -513 -12z"/>
</g>
</svg>
