<?xml version="1.0" standalone="no"?>
<!DOCTYPE svg PUBLIC "-//W3C//DTD SVG 20010904//EN"
 "http://www.w3.org/TR/2001/REC-SVG-20010904/DTD/svg10.dtd">
<svg version="1.0" xmlns="http://www.w3.org/2000/svg"
 width="1080.000000pt" height="1080.000000pt" viewBox="0 0 1080.000000 1080.000000"
 preserveAspectRatio="xMidYMid meet">

<g transform="translate(0.000000,1080.000000) scale(0.100000,-0.100000)"
fill="#000000" stroke="none">
<path d="M0 10558 l0 -243 1180 -1180 1180 -1180 -59 -180 c-33 -99 -112 -353
-176 -565 -132 -436 -192 -605 -275 -770 -142 -283 -355 -540 -746 -901 -243
-224 -339 -345 -452 -567 -67 -131 -111 -248 -146 -391 -43 -170 -50 -238 -50
-436 0 -251 26 -397 111 -624 38 -103 985 -2005 1054 -2118 262 -427 707 -730
1217 -825 215 -41 762 -26 1222 33 1154 148 2415 600 3490 1252 166 101 389
247 489 320 l53 39 1112 -1111 1111 -1111 243 0 242 0 0 242 0 243 -1080 1080
-1081 1081 68 54 c109 88 340 325 449 460 388 485 619 1018 714 1645 27 178
38 565 21 751 -21 235 -68 480 -132 689 -23 74 -175 397 -585 1240 -305 627
-580 1185 -610 1240 -272 491 -699 932 -1189 1230 -578 351 -1274 527 -1932
486 -271 -16 -472 -49 -713 -115 -614 -168 -1195 -525 -1606 -986 -171 -191
-318 -394 -434 -598 l-53 -94 -1076 1076 -1076 1076 -243 0 -242 0 0 -242z
m5910 -1029 c607 -70 1180 -373 1581 -838 579 -671 756 -1582 470 -2422 -126
-371 -343 -709 -636 -990 -94 -90 -452 -378 -620 -498 l-117 -84 -404 404
-404 404 97 16 c164 27 263 58 423 131 310 142 602 434 747 746 298 647 143
1395 -386 1859 -482 423 -1169 510 -1742 222 -420 -211 -728 -605 -827 -1059
-12 -52 -25 -116 -29 -143 l-8 -47 -369 369 -370 370 38 88 c117 272 279 513
496 736 430 444 1002 707 1635 751 74 5 328 -4 425 -15z m-74 -1813 c197 -63
365 -230 431 -429 24 -72 27 -97 27 -212 0 -116 -3 -139 -28 -210 -71 -206
-230 -366 -429 -432 -72 -24 -97 -27 -212 -27 -115 0 -140 3 -212 27 -198 66
-364 232 -430 431 -23 71 -27 97 -27 211 0 114 4 140 27 211 75 227 262 394
502 450 92 21 251 12 351 -20z m148 -3397 c-2 -4 -66 -41 -142 -82 -891 -485
-1907 -822 -2817 -936 -257 -32 -424 -43 -685 -44 -241 -1 -246 -1 -335 26
-181 57 -359 177 -462 312 -68 89 -137 227 -164 330 -32 118 -32 327 0 445 48
179 125 307 264 439 475 450 684 687 882 996 175 274 277 528 465 1158 l83
279 1458 -1458 c802 -802 1456 -1461 1453 -1465z m2930 1605 c95 -344 113
-719 50 -1079 -103 -596 -438 -1152 -917 -1522 l-48 -37 -380 380 c-208 208
-379 381 -379 384 0 3 42 37 93 75 166 124 490 386 586 474 377 344 698 829
875 1326 26 72 49 137 52 145 9 23 39 -43 68 -146z m-1864 -2659 c244 -244
391 -398 385 -403 -22 -21 -260 -174 -385 -249 -1070 -640 -2318 -1058 -3415
-1142 -238 -18 -505 -23 -599 -11 -235 30 -456 158 -600 347 -41 55 -286 513
-286 536 0 2 111 7 248 11 981 28 1915 232 2922 641 406 165 1007 464 1274
634 28 17 52 31 56 31 3 0 183 -178 400 -395z"/>
</g>
</svg>
