<svg class="svg-icon" style="width: 1em; height: 1em;vertical-align: middle;fill: currentColor;overflow: hidden;" viewBox="0 0 1024 1024" version="1.1" xmlns="http://www.w3.org/2000/svg"><path d="M68.096 950.272C30.72 950.272 0 920.064 0 882.176v-4.608c0-37.376 30.208-68.096 68.096-68.096h482.816c37.376 0 68.096 30.208 68.096 68.096v4.608c0 37.376-30.208 68.096-68.096 68.096H68.096z m0-737.28C30.208 212.992 0 182.784 0 145.408v-4.608c0-37.376 30.208-68.096 68.096-68.096h482.816c37.376 0 68.096 30.208 68.096 68.096v4.608c0 37.376-30.208 68.096-68.096 68.096H68.096z m0 368.64C30.72 581.632 0 551.424 0 513.536v-4.608c0-37.376 30.208-68.096 68.096-68.096h482.816c37.376 0 68.096 30.208 68.096 68.096v4.608c0 37.376-30.208 68.096-68.096 68.096H68.096z m883.2 370.176c-38.912 0-71.168-30.72-72.192-69.632V321.024l-48.64 48.64c-13.824 13.824-31.744 21.504-51.2 21.504s-37.376-7.68-51.2-21.504-21.504-31.744-21.504-51.2 7.68-37.376 21.504-51.2l170.496-170.496c13.824-14.848 32.768-23.552 53.248-23.552 17.408 0 34.816 6.656 47.616 17.92 15.36 13.824 24.576 33.28 24.576 54.272v731.648c0.512 18.944-6.656 36.864-19.456 51.2s-31.232 22.528-50.176 23.04c-1.024 0.512-2.048 0.512-3.072 0.512z"  /></svg>